<?xml version="1.0" standalone="no"?>
<!DOCTYPE svg PUBLIC "-//W3C//DTD SVG 20010904//EN">
<svg version="1.0" xmlns="http://www.w3.org/2000/svg"
 width="700.000000pt" height="700.000000pt" viewBox="0 0 700.000000 700.000000"
 preserveAspectRatio="xMidYMid meet">
<metadata>
Created by potrace 1.11, written by Peter Selinger 2001-2013
</metadata>
<g transform="translate(0.000000,700.000000) scale(0.100000,-0.100000)"
fill="#000000" stroke="none">
<path d="M3403 6083 c-50 -87 -133 -230 -184 -318 -50 -88 -101 -176 -112
-195 -25 -45 -115 -200 -127 -220 -7 -12 -79 -136 -239 -414 -13 -22 -48 -84
-79 -136 -30 -52 -68 -120 -85 -150 -16 -30 -36 -62 -43 -71 -8 -8 -14 -18
-14 -22 0 -3 -48 -88 -106 -189 -101 -174 -268 -462 -312 -538 -11 -19 -33
-57 -47 -85 -15 -27 -33 -57 -41 -66 -8 -8 -14 -18 -14 -21 0 -3 -32 -61 -71
-129 -108 -187 -254 -440 -276 -479 -51 -88 -304 -527 -312 -540 -5 -8 -52
-89 -104 -180 -52 -91 -168 -291 -257 -445 -89 -154 -222 -383 -295 -510 -73
-126 -180 -312 -238 -412 -95 -164 -103 -183 -84 -184 164 -5 1572 1 1574 7 2
5 80 142 174 304 94 162 181 313 194 335 12 22 46 81 75 130 29 50 62 108 75
130 12 22 48 85 80 140 51 87 115 198 187 325 21 36 200 345 296 510 30 52 65
113 77 135 13 22 95 165 184 319 89 153 161 280 161 282 0 1 14 23 30 47 17
25 30 49 30 55 0 5 6 15 13 21 11 8 18 2 34 -27 47 -83 63 -112 133 -232 58
-99 237 -408 350 -605 30 -54 201 -350 210 -365 5 -8 29 -49 53 -90 40 -69 57
-99 115 -200 37 -66 205 -355 295 -510 50 -85 104 -180 120 -210 17 -30 44
-77 62 -105 17 -27 34 -57 38 -65 3 -8 48 -87 99 -174 l93 -159 790 1 c435 0
792 1 793 1 4 1 -12 30 -148 266 -51 88 -143 248 -205 355 -62 107 -162 281
-222 385 -61 105 -142 246 -182 314 -39 68 -71 127 -71 132 0 5 -4 9 -10 9 -5
0 -10 4 -10 9 0 5 -73 134 -162 287 -89 154 -178 308 -198 344 -20 36 -123
216 -230 400 -107 184 -199 344 -205 355 -13 24 -115 200 -160 275 -18 30 -43
73 -55 95 -12 22 -65 114 -118 205 -52 91 -106 185 -120 210 -13 25 -39 70
-57 100 -40 66 -271 466 -307 530 -14 25 -49 86 -78 135 -29 50 -63 109 -76
132 -13 23 -54 93 -90 155 -37 62 -77 131 -89 153 -12 22 -78 138 -148 258
-70 121 -127 220 -127 222 0 2 -17 32 -39 66 -31 53 -43 65 -67 67 -29 3 -34
-3 -121 -155z"/>
</g>
</svg>
