<svg xmlns="http://www.w3.org/2000/svg" width="43" height="43">
    <path fill="#565656" fill-rule="evenodd" d="M21 1c11.045 0 20 8.954 20 20s-8.955 20-20 20C9.954 41 1 32.046 1 21S9.954 1 21 1z" opacity=".102"/>
    <path fill="none" stroke="#565656" stroke-width="2" d="M21 1c11.045 0 20 8.954 20 20s-8.955 20-20 20C9.954 41 1 32.046 1 21S9.954 1 21 1z"/>
    <path fill="#565656" fill-rule="evenodd" d="M31.999 22h-4a1 1 0 0 1 0-2.001h4a1 1 0 1 1 0 2.001zm-5.343-5.243a1 1 0 0 1-1.414-1.415l2.829-2.828a1 1 0 0 1 1.414 1.414l-2.829 2.829zM21 33a1 1 0 0 1-1.001-1.001v-4a1 1 0 0 1 2 0v4A1 1 0 0 1 21 33zm0-18.001a1 1 0 0 1-1.001-1v-4a1 1 0 0 1 2 0v4c0 .553-.447 1-.999 1zm-7.072 14.486a1 1 0 0 1-1.414-1.415l2.829-2.828a1 1 0 0 1 1.414 1.414l-2.829 2.829zm1.415-12.728l-2.829-2.829a1 1 0 0 1 1.414-1.414l2.829 2.828a1 1 0 0 1-1.414 1.415zM15 20.999A1 1 0 0 1 13.999 22h-4a1 1 0 0 1 0-2.001h4a1 1 0 0 1 1.001 1zm11.656 4.243l2.829 2.828a1 1 0 0 1-1.414 1.415l-2.829-2.829a1 1 0 0 1 1.414-1.414z"/>
</svg>
