<svg xmlns="http://www.w3.org/2000/svg" width="43" height="43">
    <path fill="#565656" fill-rule="evenodd" d="M21 41c-.338 0-.667-.034-1-.05V1.05c.333-.016.662-.05 1-.05 11.045 0 20 8.954 20 20s-8.955 20-20 20z" opacity=".102"/>
    <path fill="none" stroke="#565656" stroke-width="2" d="M21 41c-.338 0-.667-.034-1-.05V1.05c.333-.016.662-.05 1-.05 11.045 0 20 8.954 20 20s-8.955 20-20 20z"/>
    <path fill="none" stroke="#565656" stroke-width="2" d="M21 1c11.045 0 20 8.954 20 20s-8.955 20-20 20C9.954 41 1 32.046 1 21S9.954 1 21 1z" opacity=".4"/>
    <path fill="#565656" fill-rule="evenodd" d="M16.757 16.757a1 1 0 0 1-1.414 0l-2.829-2.829a1 1 0 0 1 1.414-1.414l2.829 2.829a1 1 0 0 1 0 1.414zM15 20.999a1 1 0 0 1-1.001 1h-4a1 1 0 1 1 0-1.999h4a1 1 0 0 1 1.001.999zm-2.486 7.071l2.829-2.828a.999.999 0 1 1 1.414 1.414l-2.829 2.829a1 1 0 0 1-1.414-1.415z" opacity=".4"/>
    <path fill="#565656" fill-rule="evenodd" d="M31.999 21.999h-4a1 1 0 1 1 0-1.999h4a.999.999 0 1 1 0 1.999zm-2.514-8.071l-2.829 2.829a1 1 0 0 1-1.414-1.414l2.829-2.829a1 1 0 0 1 1.414 1.414zm-4.243 11.314a.999.999 0 0 1 1.414 0l2.829 2.828a1 1 0 0 1-1.414 1.415l-2.829-2.829a1 1 0 0 1 0-1.414z"/>
</svg>
