<svg xmlns="http://www.w3.org/2000/svg" width="46" height="26">
    <path fill="#565656" fill-rule="evenodd" d="M1.999 5H44v19a2 2 0 0 1-2.001 1.999h-38a2 2 0 0 1-2-1.999V5z" opacity=".102"/>
    <path fill="#565656" fill-rule="evenodd" d="M44 7v17a2 2 0 0 1-2.001 1.999h-38a2 2 0 0 1-2-1.999V7H0V0h45.999v7H44zM3.999 22.999A1 1 0 0 0 5 24h35.999a1 1 0 0 0 1-1.001V7h-38v15.999zM44 1.999H1.999V5H44V1.999zm-5.876 16.173c-.379.27-.824.404-1.336.404-.769 0-1.373-.279-1.81-.838h-.094c.063.547.094.864.094.95v2.654h-1.787v-9.434h1.453l.252.85h.082c.418-.648 1.037-.973 1.857-.973.774 0 1.379.299 1.817.897.437.597.656 1.428.656 2.49 0 .699-.103 1.307-.308 1.822-.205.516-.497.909-.876 1.178zm-.934-4.474c-.197-.322-.507-.483-.929-.483-.441 0-.764.136-.967.407-.203.272-.308.72-.316 1.345v.193c0 .703.104 1.207.313 1.512.209.305.54.457.994.457.8 0 1.201-.66 1.201-1.98 0-.645-.099-1.128-.296-1.451zm-7.948 4.761h-1.788v-6.551h4.524v1.342h-2.736v5.209zm-6.153.117c-.988 0-1.733-.371-2.235-1.113-.502-.742-.753-1.838-.753-3.287 0-1.512.244-2.626.732-3.343.489-.717 1.24-1.075 2.256-1.075.988 0 1.735.375 2.241 1.125s.759 1.848.759 3.293c0 1.496-.245 2.604-.735 3.322-.49.719-1.245 1.078-2.265 1.078zM24 11.911c-.189-.459-.493-.688-.911-.688-.426 0-.73.229-.914.688-.184.459-.275 1.214-.275 2.265 0 1.051.091 1.804.272 2.259.182.455.487.682.917.682.422 0 .727-.23.914-.691.188-.461.282-1.211.282-2.25 0-1.051-.095-1.806-.285-2.265zm-7.585 1.076c.828 0 1.488.232 1.978.697.49.465.735 1.101.735 1.91 0 .957-.295 1.693-.884 2.209-.59.515-1.434.773-2.532.773-.953 0-1.722-.154-2.308-.463v-1.564c.308.164.668.298 1.078.401.41.104.799.156 1.166.156 1.105 0 1.658-.453 1.658-1.36 0-.863-.572-1.295-1.717-1.295-.207 0-.435.021-.685.062-.25.041-.454.085-.61.132l-.72-.387.322-4.365h4.646v1.535h-3.058l-.158 1.682.205-.041c.238-.055.533-.082.884-.082zm-7.3.515l.017-.814.029-.891c-.3.301-.509.498-.627.592l-.984.791-.873-1.09 2.76-2.197h1.488v8.566h-1.81v-4.957z"/>
</svg>
