<svg xmlns="http://www.w3.org/2000/svg" width="58" height="30">
    <path fill="#565656" fill-rule="evenodd" d="M1.999 4.999h54v23a2 2 0 0 1-2 2.001h-50a2 2 0 0 1-2-2.001v-23z" opacity=".102"/>
    <path fill="#565656" fill-rule="evenodd" d="M55.999 7v20.999a2 2 0 0 1-2 2.001h-50a2 2 0 0 1-2-2.001V7h-2V-.001h58V7h-2zm-52 19.999a1 1 0 0 0 1 1h48a1 1 0 0 0 1-1V7h-50v19.999zM55.999 2h-54v2.999h54V2zM44.124 20.172c-.379.27-.824.404-1.336.404-.769 0-1.373-.279-1.81-.838h-.094c.063.547.094.864.094.95v2.654h-1.787v-9.434h1.453l.252.85h.082c.418-.648 1.037-.973 1.857-.973.774 0 1.379.299 1.817.897.437.597.656 1.428.656 2.49 0 .699-.103 1.307-.308 1.822-.205.516-.497.908-.876 1.178zm-.934-4.474c-.197-.322-.507-.483-.929-.483-.441 0-.764.136-.967.407-.203.272-.308.72-.316 1.345v.193c0 .703.104 1.207.313 1.512.209.305.54.457.994.457.8 0 1.201-.66 1.201-1.98 0-.645-.099-1.128-.296-1.451zm-7.948 4.761h-1.788v-6.551h4.524v1.342h-2.736v5.209zm-6.153.117c-.988 0-1.733-.371-2.235-1.113-.502-.742-.753-1.838-.753-3.287 0-1.512.244-2.626.732-3.343.489-.717 1.24-1.075 2.256-1.075.988 0 1.735.375 2.241 1.125s.759 1.848.759 3.293c0 1.496-.245 2.603-.735 3.322-.49.719-1.245 1.078-2.265 1.078zM30 13.911c-.189-.459-.493-.688-.911-.688-.426 0-.73.229-.914.688-.184.459-.275 1.214-.275 2.265 0 1.051.091 1.804.272 2.259.182.455.487.682.917.682.422 0 .727-.23.914-.691.188-.461.282-1.211.282-2.25 0-1.051-.095-1.806-.285-2.265zm-7.76 6.665c-.989 0-1.734-.371-2.236-1.113-.502-.742-.753-1.838-.753-3.287 0-1.512.244-2.626.733-3.343.488-.717 1.24-1.075 2.256-1.075.988 0 1.735.375 2.241 1.125s.759 1.848.759 3.293c0 1.496-.246 2.603-.736 3.322-.49.719-1.245 1.078-2.264 1.078zm.911-6.665c-.19-.459-.493-.688-.911-.688-.426 0-.731.229-.914.688-.184.459-.276 1.214-.276 2.265 0 1.051.091 1.804.273 2.259.181.455.487.682.917.682.421 0 .726-.23.914-.691.187-.461.281-1.211.281-2.25 0-1.051-.095-1.806-.284-2.265zm-7.585 1.075c.828 0 1.487.233 1.977.698.49.465.736 1.101.736 1.91 0 .957-.295 1.693-.885 2.209-.59.516-1.434.773-2.531.773-.953 0-1.723-.154-2.309-.462v-1.565a4.78 4.78 0 0 0 1.078.401c.41.104.799.156 1.166.156 1.106 0 1.658-.454 1.658-1.36 0-.863-.572-1.295-1.716-1.295-.208 0-.436.021-.686.062-.25.041-.453.085-.609.132l-.721-.387.322-4.365h4.647v1.535h-3.059l-.158 1.681.205-.04c.238-.055.533-.083.885-.083z"/>
</svg>
