<svg xmlns="http://www.w3.org/2000/svg" width="39" height="32">
    <defs>
        <filter id="a">
            <feFlood flood-color="#565656" flood-opacity="1" result="floodOut"/>
            <feComposite in="floodOut" in2="SourceGraphic" operator="atop" result="compOut"/>
            <feBlend in="compOut" in2="SourceGraphic"/>
        </filter>
    </defs>
    <g fill="#005BAA" fill-rule="evenodd" filter="url(#a)">
        <path d="M15 12c0 4.098 2.057 7.712 5.192 9.877L10 24 7 8h8.697A11.966 11.966 0 0 0 15 12z" opacity=".102"/>
        <path d="M15.18 10H9.231l1.796 11.676 7.481-1.197c.632.632 1.34 1.184 2.099 1.664l-9.28 1.484.365 2.373H27a3 3 0 1 1-3 3c0-.353.072-.686.183-1h-8.367c.112.314.184.647.184 1a3 3 0 1 1-6 0c0-.353.072-.686.183-1H10l-.625-4.06L9 24v-2l.075-.012L6.308 4H0V2h8l.923 6h6.774a11.906 11.906 0 0 0-.517 2zM27 30a1 1 0 1 0 0-2 1 1 0 0 0 0 2zm-14 0a1 1 0 1 0 0-2 1 1 0 0 0 0 2z"/>
        <path d="M27 24c-6.628 0-12-5.373-12-12S20.372 0 27 0c6.627 0 12 5.373 12 12s-5.373 12-12 12zm0-22c-5.523 0-10 4.477-10 10s4.477 10 10 10 10-4.477 10-10S32.523 2 27 2z"/>
        <path d="M31 12v5h-8v-5h-2V7h12v5h-2zm-6 3h4v-3h-4v3zm6-6h-8v1h8V9z"/>
        <path d="M30 11v5h-6v-5h-1V9h8v2h-1z" opacity=".102"/>
    </g>
</svg>
