<svg xmlns="http://www.w3.org/2000/svg" width="39" height="32">
    <path fill="#565656" fill-rule="evenodd" d="M15 12c0 4.098 2.057 7.712 5.192 9.877L10 24 7 8h8.697A11.966 11.966 0 0 0 15 12z" opacity=".102"/>
    <path fill="#565656" fill-rule="evenodd" d="M15.18 10H9.231l1.796 11.676 7.481-1.197c.632.632 1.34 1.184 2.099 1.664l-9.28 1.484.365 2.373H27a3 3 0 1 1-3 3c0-.353.072-.686.183-1h-8.367c.112.314.184.647.184 1a3 3 0 1 1-6 0c0-.353.072-.686.183-1H10l-.625-4.06L9 24v-2l.075-.012L6.308 4H0V2h8l.923 6h6.774a11.906 11.906 0 0 0-.517 2zM27 30a1 1 0 1 0 0-2 1 1 0 0 0 0 2zm-14 0a1 1 0 1 0 0-2 1 1 0 0 0 0 2z"/>
    <path fill="#565656" fill-rule="evenodd" d="M27 24c-6.628 0-12-5.373-12-12S20.372 0 27 0c6.627 0 12 5.373 12 12s-5.373 12-12 12zm0-22c-5.523 0-10 4.477-10 10s4.477 10 10 10 10-4.477 10-10S32.523 2 27 2z"/>
    <path fill="#565656" fill-rule="evenodd" d="M27 19a7 7 0 1 1 0-14 7 7 0 0 1 0 14zm0-12a5 5 0 1 0 0 10 5 5 0 0 0 0-10z"/>
    <path fill="#565656" fill-rule="evenodd" d="M27 6a6 6 0 1 1 0 12 6 6 0 0 1 0-12z" opacity=".102"/>
    <path fill="#565656" fill-rule="evenodd" d="M29 13a1 1 0 1 1 0-2 1 1 0 0 1 0 2zm-2-2a1 1 0 1 1 0-2 1 1 0 0 1 0 2zm-2 2a1 1 0 1 1 0-2 1 1 0 0 1 0 2zm2 0a1 1 0 1 1 0 2 1 1 0 0 1 0-2z"/>
</svg>
