<svg xmlns="http://www.w3.org/2000/svg" width="47" height="22">
    <path fill-rule="evenodd" d="M12.038 9.111c.025 2.596 2.351 3.459 2.377 3.47-.02.061-.372 1.231-1.225 2.44-.738 1.044-1.504 2.085-2.711 2.107-1.186.021-1.566-.681-2.923-.681-1.355 0-1.779.659-2.901.702-1.164.043-2.051-1.13-2.796-2.171C.339 12.848-.823 8.961.737 6.337c.776-1.302 2.16-2.128 3.664-2.149 1.144-.021 2.224.745 2.923.745.698 0 2.011-.921 3.39-.786.578.024 2.198.226 3.239 1.701-.085.051-1.935 1.094-1.915 3.263M9.81 2.738c.618-.725 1.035-1.734.922-2.738-.893.034-1.97.575-2.609 1.299-.573.642-1.075 1.668-.94 2.653.994.075 2.009-.489 2.627-1.214m8.95-1.241a27.77 27.77 0 0 1 1.517-.208 16.117 16.117 0 0 1 1.825-.092c.948 0 1.765.111 2.452.335.688.224 1.252.544 1.694.96.382.375.685.824.888 1.319.213.509.319 1.095.319 1.759 0 .802-.145 1.504-.438 2.106a4.373 4.373 0 0 1-1.196 1.515 5.08 5.08 0 0 1-1.801.914 8.2 8.2 0 0 1-2.275.301c-.742 0-1.366-.054-1.871-.162v6.665H18.76V1.497zm1.114 7.776c.268.076.569.13.9.161.332.031.687.046 1.066.046 1.422 0 2.524-.323 3.306-.972.781-.647 1.172-1.596 1.172-2.846 0-.601-.102-1.126-.308-1.574a2.822 2.822 0 0 0-.876-1.099 4.052 4.052 0 0 0-1.35-.648 6.415 6.415 0 0 0-1.731-.22c-.505 0-.939.019-1.303.058a9.061 9.061 0 0 0-.876.128v6.966zm16.44 4.998c0 .448.007.895.023 1.343.015.447.062.878.142 1.295h-1.042l-.166-1.574h-.049a3.858 3.858 0 0 1-.544.648 4.242 4.242 0 0 1-.77.59 4.093 4.093 0 0 1-.995.429 4.37 4.37 0 0 1-1.22.161c-.552 0-1.039-.088-1.458-.266a2.998 2.998 0 0 1-1.03-.694 2.834 2.834 0 0 1-.604-.984 3.233 3.233 0 0 1-.201-1.11c0-1.311.564-2.322 1.694-3.031 1.129-.71 2.831-1.05 5.106-1.019v-.3c0-.294-.028-.63-.083-1.008a3.096 3.096 0 0 0-.368-1.076 2.34 2.34 0 0 0-.852-.855c-.379-.232-.893-.348-1.54-.348-.49 0-.975.073-1.457.22a4.97 4.97 0 0 0-1.315.613l-.355-.81a5.304 5.304 0 0 1 1.563-.728 6.367 6.367 0 0 1 1.682-.22c.79 0 1.433.131 1.931.393.498.263.889.602 1.173 1.018.287.423.484.899.581 1.401.101.506.153 1.022.154 1.538v4.374zM35.2 10.962c-.63-.014-1.258.009-1.885.069a6.96 6.96 0 0 0-1.812.405 3.468 3.468 0 0 0-1.373.914c-.364.401-.546.934-.546 1.597 0 .786.229 1.365.688 1.735.457.37.971.556 1.54.556a3.79 3.79 0 0 0 1.231-.186 3.2 3.2 0 0 0 1.623-1.202c.182-.264.32-.533.416-.811.078-.308.118-.532.118-.671v-2.406zm3.291-5.161l2.89 7.22c.161.409.312.821.451 1.238.142.424.268.814.379 1.169h.048c.11-.339.236-.721.379-1.146.142-.424.3-.86.473-1.308l2.702-7.173h1.184l-3.293 8.146c-.301.787-.614 1.57-.936 2.349a21.949 21.949 0 0 1-.889 1.897 13.333 13.333 0 0 1-.913 1.493 6.3 6.3 0 0 1-1.03 1.134c-.441.385-.849.667-1.22.844-.371.178-.62.29-.746.336l-.38-.903c.325-.144.642-.306.948-.486a5.15 5.15 0 0 0 1.019-.786c.284-.278.597-.644.936-1.1.339-.454.643-1.006.913-1.654.094-.247.141-.409.141-.487 0-.107-.047-.269-.141-.486L37.306 5.8h1.185v.001z"/>
</svg>
