<svg xmlns="http://www.w3.org/2000/svg" width="43" height="39">
    <path fill="#FF9000" fill-rule="evenodd" d="M31.993 26L9.272 29.635 9.666 32h1.323l.01-.001.01.001H25a3 3 0 1 1-3 3c0-.353.072-.686.183-1h-8.367c.111.314.183.647.183.999a3 3 0 1 1-6 0c0-.352.072-.685.184-.999H8v-.001h-.001l-.675-4.052-.325.052v-1.998L4.333 12H0v-2h3.999v-.001h2V10H6v.003L6.833 15H32v11h-.007zM25 36a1 1 0 1 0 0-2 1 1 0 0 0 0 2zm-14 0a1 1 0 1 0 0-2 1 1 0 0 0 0 2zm19-19h-7.901l.845 8.448L30 24.319V17z"/>
    <path fill="#FFF" fill-rule="evenodd" stroke="#FF9000" stroke-width="2" d="M26 1c8.284 0 15 6.716 15 15 0 8.284-6.716 15-15 15-8.284 0-15-6.716-15-15 0-8.284 6.716-15 15-15z"/>
</svg>
