<svg xmlns="http://www.w3.org/2000/svg" viewBox="0 0 30 27.001"><defs><style>.a{fill:#c5cdd1;}</style></defs><path class="a" d="M-2928,27a2.989,2.989,0,0,1,.171-1h-8.342a2.989,2.989,0,0,1,.171,1,3,3,0,0,1-3,3,3,3,0,0,1-3-3,2.983,2.983,0,0,1,.352-1.41L-2943.812,5H-2948V3h6v.1l.41,3.9H-2918V18h-.293l-21.779,3.45.268,2.55h14.8a3,3,0,0,1,3,3,3,3,0,0,1-3,3A3,3,0,0,1-2928,27Zm2,0a1,1,0,0,0,1,1,1,1,0,0,0,1-1,1,1,0,0,0-1-1A1,1,0,0,0-2926,27Zm-14,0a1,1,0,0,0,1,1,1,1,0,0,0,1-1,1,1,0,0,0-1-1A1,1,0,0,0-2940,27Zm-.282-7.542L-2920,16.245V9h-21.381Z" transform="translate(2948 -3)"/></svg>