<svg xmlns="http://www.w3.org/2000/svg" width="61.5" height="61.5">
    <path fill="#005BAA" fill-rule="evenodd" d="M44.498 29.503c-.366 0-.704-.117-.999-.307v1.303H39.5v-13a2 2 0 1 1 3.999 0v9.908c.295.19.633.307.999.307 1.106 0 2.003-.994 2.003-2.237v1.789c0 1.243-.897 2.237-2.003 2.237zm-21.999-9.004H37.5v3H22.499v-3z" opacity=".2"/>
    <path fill="#005BAA" fill-rule="evenodd" d="M44.499 30.499h-4v15h-21v-27.93c0-1.143.884-2.07 1.975-2.07h20.025a2 2 0 0 1 2 2v5h3v6a2 2 0 0 1-2 2zm-4.999 0v-14H21.474c-.538 0-.975.48-.975 1.07v26.93H39.5v-14zm2.999-2v-11a1.001 1.001 0 0 0-2 0v12h2v-1zm3-5h-2v5a1.001 1.001 0 0 0 2 0v-5zm-23 12.5c0-.275.225-.5.5-.5H33c.274 0 .499.225.499.5s-.225.5-.499.5H22.999a.501.501 0 0 1-.5-.5zM35 40.499h1.999c.275 0 .501.225.501.5s-.226.5-.501.5H35a.502.502 0 0 1-.501-.5c0-.275.226-.5.501-.5zm-12.501-20H37.5v3H22.499v-3zm1 2H36.5v-1h-1.001v.5a.5.5 0 1 1-1 0v-.5h-1v.5a.5.5 0 1 1-1 0v-.5h-1v.5a.5.5 0 0 1-1 0v-.5h-1v.5a.5.5 0 1 1-.999 0v-.5h-1.001v.5a.5.5 0 1 1-1 0v-.5H25.5v.5a.5.5 0 0 1-1 0v-.5h-1.001v1zm-.5 4h11c.275 0 .5.225.5.5s-.225.5-.5.5h-11a.501.501 0 0 1-.5-.5c0-.275.225-.5.5-.5zm0 6H35c.274 0 .499.225.499.5s-.225.5-.499.5H22.999a.501.501 0 0 1-.5-.5c0-.275.225-.5.5-.5zm0-3h13c.275 0 .501.225.501.5s-.226.5-.501.5h-13a.501.501 0 0 1-.5-.5c0-.275.225-.5.5-.5zm0 11h4c.275 0 .5.225.5.5s-.225.5-.5.5h-4a.501.501 0 0 1-.5-.5c0-.275.225-.5.5-.5z"/>
    <path fill="none" stroke="#005BAA" d="M30.499.499c16.569 0 30 13.432 30 30 0 16.569-13.431 30-30 30-16.568 0-30-13.431-30-30 0-16.568 13.432-30 30-30z" opacity=".502"/>
</svg>
