<svg xmlns="http://www.w3.org/2000/svg" width="40" height="24">
    <path fill="#005BAA" fill-rule="evenodd" d="M35.999 20v4H0V2h4V0h36v20h-4.001zM4 4H2v18h31.999v-2H4V4zm4.27 14c-.462-.914-1.19-1.912-2.27-2.496V18h2.27zM6 2v2.503C7.082 3.92 7.802 2.914 8.266 2H6zm32 0h-2.271c.463.914 1.191 1.911 2.271 2.495V2zm0 11V6.91A5.999 5.999 0 0 1 33.089 2H10.91A5.999 5.999 0 0 1 6 6.91v6.179A5.999 5.999 0 0 1 10.91 18h22.179A5.999 5.999 0 0 1 38 13.089V13zm0 2.496c-1.083.584-1.802 1.59-2.267 2.504H38v-2.504zM22 16a6 6 0 1 1 0-12 6 6 0 0 1 0 12zm0-10a4 4 0 1 0 0 8 4 4 0 0 0 0-8z"/>
    <path fill="#005BAA" fill-rule="evenodd" d="M39 14c-4.885 0-4.001 5-4.001 5s-22.694.033-26 0C8.999 15.315 5 14 5 14V6c3.834-1.515 3.999-5 3.999-5s22.231-.018 25 0C34.076 4.436 39 6 39 6s.162 5.594 0 8zM22 4.999a5 5 0 1 0 0 10 5 5 0 0 0 0-10z" opacity=".102"/>
</svg>
