<svg xmlns="http://www.w3.org/2000/svg" width="23" height="27">
    <path fill="#005BAA" fill-rule="evenodd" d="M21.499 13.018c1.435.843 1.927 2.707 1.099 4.166l-.501.88-1 1.761-1.347-.79-2.153 6.952a1.981 1.981 0 0 1-2.732.744L1.009 18.599a2.05 2.05 0 0 1-.732-2.777l4.847-5.371-1.347-.791 1.5-2.64a2.973 2.973 0 0 1 4.098-1.117l3.464 2.033 3.5-6.162 1-1.76 3.952 2.319 1.244.73-4.5 7.922 3.464 2.033zm-19.49 3.821l2.598 1.525 1.5-2.641 1.732 1.016-1.5 2.641 1.732 1.017 1.5-2.642 1.732 1.017-1.5 2.641 1.732 1.016 1.5-2.641 1.732 1.017-1.5 2.641 2.598 1.525 1.768-7.179-10.392-6.099-5.232 5.146zm5.5-9.684l-1 1.761 13.856 8.132 1-1.761L7.509 7.155zm12.294-3.348l-1.732-1.016-3.5 6.162 1.732 1.016 3.5-6.162z"/>
</svg>
