<svg xmlns="http://www.w3.org/2000/svg" width="32" height="18">
    <path fill="#FF9000" fill-rule="evenodd" d="M29 14a2 2 0 0 1-2 2H13.279A7.96 7.96 0 0 1 8 18a8 8 0 0 1-8-8c0-4.079 3.054-7.438 7-7.931V2a2 2 0 0 1 2-2h18a2 2 0 0 1 2 2v8l2.999 2L29 14zM8 4a6 6 0 1 0 0 12A6 6 0 0 0 8 4zm19-2H9v.069A7.958 7.958 0 0 1 13.279 4H25v2H14.921c.186.32.351.653.492 1H25v2h-9.069c.041.328.069.66.069 1h9v2h-9.262a7.958 7.958 0 0 1-.817 2H27V2zM8.019 11.836L5.898 9.715l3.535-3.536 2.122 2.122-3.536 3.535zm-3.514 1.392l.708-2.836 2.129 2.129-2.837.707z"/>
</svg>
