<svg xmlns="http://www.w3.org/2000/svg" width="61.5" height="61.5">
    <path fill="#005BAA" fill-rule="evenodd" d="M44.5 45.499H16.499a1 1 0 0 1-1-1v-25a1 1 0 0 1 1-1h2v-3.5a.5.5 0 0 1 .5-.5h2a.5.5 0 0 1 .501.5v3.5h17.999v-3.5a.5.5 0 0 1 .501-.5h1.999a.5.5 0 0 1 .5.5v3.5H44.5a1 1 0 0 1 .999 1v25c0 .553-.447 1-.999 1zm0-1v-2H16.499v2H44.5zm-24-29h-1.001v3H20.5v-3zm20.999 0h-1v3h1v-3zm3.001 4H16.499v2H44.5v-2zm-28.001 3v19H44.5v-19H16.499z"/>
    <path fill="none" stroke="#004F9F" d="M34.947 38.38l-4.357-2.434-4.295 2.55.866-5.087-3.646-3.486 4.893-.709 2.043-4.704 2.157 4.647 4.908.579-3.559 3.582.99 5.062z"/>
    <path fill="#005BAA" fill-rule="evenodd" d="M19.499 44.499l2.001-2h23v2H19.499zm-3-23v-2h26l-2 2h-24zM40.499 18.499v-3h1v3h-1zm-6.183 18.898l-3.734-2.086-3.682 2.185.742-4.359-3.125-2.988 4.194-.609 1.751-4.032 1.849 3.984 4.207.496-3.051 3.071.849 4.338zM19.499 15.499H20.5v3h-1.001v-3z" opacity=".2"/>
    <path fill="none" stroke="#005BAA" d="M30.5.499c16.568 0 29.999 13.432 29.999 30 0 16.569-13.431 30-29.999 30-16.569 0-30.001-13.431-30.001-30 0-16.568 13.432-30 30.001-30z" opacity=".502"/>
</svg>
