<svg xmlns="http://www.w3.org/2000/svg" width="16" height="18">
    <path fill="#005BAA" fill-rule="evenodd" d="M3.736 18a3.733 3.733 0 0 1-2.658-1.104 3.77 3.77 0 0 1-.001-5.319l8.107-8.115c.898-.9 2.468-.901 3.367.001a2.386 2.386 0 0 1 0 3.365l-4.215 4.22a1 1 0 1 1-1.418-1.412l4.214-4.22a.384.384 0 0 0 0-.542c-.193-.193-.337-.192-.529-.001l-8.107 8.115a1.771 1.771 0 0 0 .001 2.497c.661.662 1.816.663 2.479-.001l8.106-8.114a3.157 3.157 0 0 0-.002-4.451c-1.181-1.185-3.244-1.185-4.427 0L3.914 7.664a1.001 1.001 0 0 1-1.418-1.413l4.739-4.744a5.102 5.102 0 0 1 3.632-1.508c1.372 0 2.662.537 3.633 1.508a5.16 5.16 0 0 1 .001 7.275l-8.107 8.114A3.731 3.731 0 0 1 3.736 18z"/>
</svg>
