<svg xmlns="http://www.w3.org/2000/svg" width="40" height="40">
    <path fill="#C536A4" fill-rule="evenodd" d="M19.999 0c-11.046 0-20 8.955-20 20s8.954 20 20 20 20-8.955 20-20-8.954-20-20-20z"/>
    <path fill="#FFF" fill-rule="evenodd" d="M24.959 30.01h-9.92a5.055 5.055 0 0 1-5.05-5.051V15.04a5.056 5.056 0 0 1 5.05-5.051h9.92a5.055 5.055 0 0 1 5.05 5.051v9.919a5.055 5.055 0 0 1-5.05 5.051zM27.999 15c0-1.584-1.416-3-3-3h-10c-1.583 0-3 1.416-3 3v10c0 1.583 1.417 3 3 3h10c1.584 0 3-1.417 3-3V15zm-3 1a1 1 0 1 1 0-2 1 1 0 0 1 0 2zm-5 9A5 5 0 1 1 20 14.999 5 5 0 0 1 20 25zm0-8a3 3 0 1 0 0 6 3 3 0 0 0 0-6z"/>
</svg>
