<svg xmlns="http://www.w3.org/2000/svg" width="40" height="29">
    <path fill="#565656" fill-rule="evenodd" d="M30 10l7-9 2 1-7 9-2-1zM1 10l7-9 2 1-7 9-2-1zm39 8l-7 9-2-1 7-9 2 1zM23 17v6h-2v-6h-2v-2l5.986-.003L25 17h-2zM8 15h2v6h2v-6h2v6h2v-6h2v8H8v-8z"/>
    <path fill="#565656" fill-rule="evenodd" d="M39.445 18H36.5a1.5 1.5 0 0 0 1.5-1.5c0-.059-.027-.109-.034-.167.019-.109.034-.219.034-.333V4a2 2 0 0 0-2-2H7.555C8.248.809 9.523 0 11 0h25a4 4 0 0 1 4 4v12c0 .732-.211 1.409-.555 2zm-3.112-.034c.058.007.108.034.167.034H36c.114 0 .224-.015.333-.034zM15 9h14a4 4 0 0 1 4 4v12a4 4 0 0 1-4 4H4a4 4 0 0 1-4-4V13a4 4 0 0 1 4-4h11zM4 11a2 2 0 0 0-2 2v12a2 2 0 0 0 2 2h25a2 2 0 0 0 2-2V13a2 2 0 0 0-2-2H4z"/>
    <path fill="#565656" fill-rule="evenodd" d="M3 10l7-9h26l2 1 1 15-7 9V10H3z" opacity=".102"/>
</svg>
