<svg xmlns="http://www.w3.org/2000/svg" width="171" height="20">
    <path fill="#005BAA" fill-rule="evenodd" d="M63.245 13.285c-.769-.801-2.992-3.314-3.107-4.514-.114-1.115-2.451.742-2.765.971-1.425 1.143-2.28 2.428-3.791 3.543-1.511 1.114-2.965 1.971-4.903 2.057-1.511.057-4.647-.315-3.649-2.457.856-1.829 2.794-2.943 4.704-3.6.998-.343 2.052-.543 3.079-.4 1.083.143 1.168.657 2.565.428.798-.057 3.563-1.999 2.623-2.542-1.882-.915-4.704-.343-6.614.2-3.164.885-9.378 3.485-9.749 7.171-.199 1.942 2.081 3.314 3.791 3.599 2.395.429 4.789-.171 6.87-1.342 1.597-.915 2.936-2.115 4.191-3.429.997-1.057 1.054-.257 1.71.886a30.4 30.4 0 0 0 3.079 4.457c1.653 1.971 2.822.028 4.162-1.514 1.339-1.572-.855-2.086-2.196-3.514zm87.314 2.399c-4.333-4.285 8.238-7.856 11.203-8.142 2.907-.286 5.644.086 6.128 1.029.513.942-2.679 3.199-5.359 4.256-1.853.743-6.699 2.086-6.642 1.372.029-.743 8.552-3.371 6.556-4.171-1.966-.772-4.532-.086-6.413.943-7.155 4.77 5.102 9.456 11.032 4.485 1.938-.8 3.848-.2 3.933.457.029.343-.769.6-1.938 1-5.501 1.885-14.253 2.942-18.5-1.229zm-27.394 2.914c-.2-.771 1.254 0 4.988-1.885 3.763-1.914 12.828-8.8 14.111-8.399 1.282.399 2.508 3.256 3.791 4.713 1.283 1.486 3.42 2.115 1.995 3.572-1.454 1.457-2.708 3.314-4.276 1.285-1.568-2.028-2.879-5.685-4.162-5.314-1.282.372-8.865 5.428-12.2 6.171-2.48.515-4.048.629-4.247-.143zm-2.851-11.085c.656-4.028-1.995-1.257-2.138.2-5.245.343-8.238-.971-8.409-.057-.257 1.029 1.083 1.8 7.868 2.143-.485 2.6-.827 4.343-.798 7 .028 1.714.313 2.657.826 2.999.884.572 3.136-.2 3.649-.942.313-.429-.086-1.2-.542-2.486-.94-2.657-1.396-3.714-.998-6.657 4.846-.542 13.598.486 12.343-2.114-.798-1.685-9.663-.228-11.801-.086zm-29.389 5.4c1.454-2.628 7.383-5.028 11.26-5.4 2.936-.285 5.814.143 6.47 1.115 1.112 1.657-5.644 4.542-7.753 5.142-1.939.543-4.076.972-4.105.486-.029-.343 2.566-1.257 3.876-1.971 1.255-.657 3.849-2.029 2.538-2.457-2.11-.772-5.16.171-6.956 1.228-2.451 1.8-1.568 3.457.998 4.8 3.193 1.428 6.699 2.057 10.262 2.514 0 0 1.625.2 1.625.543 0 .171-1.112.228-2.594.2-3.392-.057-18.187-1.571-15.621-6.2zm2.052 4.943c-3.962-1.029-8.267-2.029-12.058-3.543 3.25-1.943 5.559-4.085 6.157-4.657.713-.714.228-1.257-.199-1.171 0 0-4.989 3.428-9.037 4.542-.199.058-4.56-2.656-5.444-3.342-2.053-1.657-2.452-2.057-3.25-1.314-2.594 2.428.513 3.771 5.873 5.828-1.882.314-6.329.8-6.927.943-1.084.257-.314 2.456.228 3.428.541.943 6.527-1.057 10.376-2.971 6.812 2.228 13.654 3.685 14.424 3.171.883-.6-.143-.914-.143-.914zM22.34 9.37c3.62-2.828 19.64 1.743 16.904 5.172-.4.514-2.766 2.114-6.842 3.256-5.074 1.429-20.325 3.286-19.84-3.799.228-1.829 1.482-5.2 2.138-7.314-3.962.828-10.319 3.086-13.911 5.028-1.225.686-.798-3.742-.228-4.485.97-1.257 12.201-3.543 15.279-3.857 1.084-2.286 1.996-3.657 2.994-3.314.826.286.256 1.543.028 3 9.407-.686 15.707-.143 22.719 1.028.428.057.684.457.599.686-.086.228-.456.228-.77.2-12.713-.914-19.27.143-23.118 1.028-1.083 3.914-1.54 7.314-.314 9.371.599.971 1.682 1.343 2.68 1.543 3.05.6 11.345-1.286 13.284-4.257.342-.543.085-.943-1.625-.914a51.233 51.233 0 0 0-9.578 1.085c-4.647.972-3.392-1.085-.399-3.457z"/>
</svg>
