<svg xmlns="http://www.w3.org/2000/svg" width="17" height="19">
    <path fill="#FFF" fill-rule="evenodd" d="M16.429 5.462a.674.674 0 0 1-.653.511.663.663 0 0 1-.302-.074 3.715 3.715 0 0 0-.41-.178c-.626-.23-.989-.261-1.138-.261-.054 0-.08.004-.08.004-.824.159-1.217.351-3.12.477a3.2 3.2 0 0 1-.235.008c-1.096 0-1.45-.546-2.286-.546-.613 0-1.486.104-2.288.104-.365 0-.715-.022-1.02-.084-.62-.126-1.065-.928-.339-1.266a9.038 9.038 0 0 1 1.801-.604 8.048 8.048 0 0 1 1.786-.188c.305 0 .611.014.918.039l.041.002a.503.503 0 0 0 .501-.45.499.499 0 0 0-.443-.548 10.27 10.27 0 0 0-1.022-.052c-.093 0-.186.002-.279.004a8.86 8.86 0 0 0-3.021.613c-.717.288-1.42.648-2.026 1.133-.229.183-.445.515-.73.6a.746.746 0 0 1-.21.03c-.207 0-.42-.078-.585-.19-.261-.178-.362-.479-.334-.787C1.053 2.672 5.117.033 8.256 0h.082c2.613 0 4.864 1.306 5.508 1.717 1.008.567 1.572.75 1.934.936a6.7 6.7 0 0 1 .784.504.666.666 0 0 1 .26.703l-.395 1.602zm-5.176 4.484l-1.82 1.721c-.183.172-.365.344-.547.344l-.005-.001-.005.001c-.182 0-.364-.172-.547-.344L6.508 9.946a1.683 1.683 0 0 1-.287-.321 1.592 1.592 0 0 1-.32-.954c0-.914.786-1.656 1.755-1.656.477 0 .909.18 1.225.47a1.81 1.81 0 0 1 1.225-.47c.969 0 1.755.742 1.755 1.656 0 .355-.119.684-.321.954-.08.119-.177.226-.287.321zm-9.267 3.079c.101 0 .204.023.302.073.119.061.255.122.41.179.626.23.989.26 1.138.26.054 0 .08-.004.08-.004.824-.159 1.217-.35 3.12-.476.082-.006.161-.008.236-.008 1.096 0 1.45.546 2.285.546.613 0 1.486-.103 2.289-.103.364 0 .714.021 1.019.083.62.126 1.065.928.339 1.266a9.146 9.146 0 0 1-1.801.604 8.093 8.093 0 0 1-1.785.188c-.306 0-.612-.014-.919-.04l-.041-.001a.503.503 0 0 0-.501.449.498.498 0 0 0 .443.548 10.23 10.23 0 0 0 1.302.048 8.854 8.854 0 0 0 3.02-.613c.718-.286 1.419-.647 2.026-1.132.229-.183.445-.515.73-.6a.735.735 0 0 1 .21-.029c.207 0 .42.076.585.189.261.177.363.478.334.787-.098 1.087-4.161 3.726-7.3 3.759h-.082c-2.613 0-4.864-1.306-5.509-1.718-1.009-.567-1.572-.749-1.934-.935a6.835 6.835 0 0 1-.784-.504.666.666 0 0 1-.26-.703l.395-1.602a.673.673 0 0 1 .653-.511z"/>
</svg>
