<svg xmlns="http://www.w3.org/2000/svg" width="30" height="23">
    <path fill="#1D1D1B" fill-rule="evenodd" d="M29.854 22.86a.256.256 0 0 1-.237.151.264.264 0 0 1-.102-.019.244.244 0 0 1-.082-.054.24.24 0 0 1 0-.349.258.258 0 0 1 .184-.072.254.254 0 0 1 .257.247.24.24 0 0 1-.02.096zm-.072-.166a.173.173 0 0 0-.095-.094.165.165 0 0 0-.07-.014.164.164 0 0 0-.071.014.167.167 0 0 0-.058.038.157.157 0 0 0-.039.056.182.182 0 0 0 0 .14.185.185 0 0 0 .168.109.182.182 0 0 0 .07-.014.192.192 0 0 0 .057-.039.155.155 0 0 0 .038-.056.166.166 0 0 0 .015-.07.166.166 0 0 0-.015-.07zm-.129.179l-.062-.076h-.008v.076h-.062v-.219h.11c.031 0 .054.007.07.02a.068.068 0 0 1 .024.054.06.06 0 0 1-.018.044.084.084 0 0 1-.049.023l.069.078h-.074zm.007-.145c0-.007-.002-.012-.007-.016a.05.05 0 0 0-.023-.004h-.047v.04h.047c.01 0 .017-.002.023-.005.005-.003.007-.008.007-.015zm-1.707-.147a.953.953 0 0 1-.318.258.997.997 0 0 1-.454.096c-.172 0-.333-.032-.482-.095a1.187 1.187 0 0 1-.389-.264 1.248 1.248 0 0 1-.262-.403 1.356 1.356 0 0 1-.095-.512c0-.186.032-.356.095-.513.064-.156.151-.29.262-.403.11-.113.241-.201.389-.264.149-.063.31-.095.482-.095.176 0 .327.033.454.098a.968.968 0 0 1 .318.259v-1.278h.535v3.407h-.535v-.291zm-.021-1.229a.7.7 0 0 0-.384-.408.745.745 0 0 0-.303-.06.735.735 0 0 0-.543.229.735.735 0 0 0-.146.247.877.877 0 0 0 0 .601.694.694 0 0 0 .378.414.75.75 0 0 0 .311.062.703.703 0 0 0 .687-.468.856.856 0 0 0 .054-.308.861.861 0 0 0-.054-.309zm-2.395-.44a1.077 1.077 0 0 0-.21-.023.618.618 0 0 0-.235.044.484.484 0 0 0-.185.126.59.59 0 0 0-.12.205.782.782 0 0 0-.044.275v1.333h-.491v-2.423h.486v.318c.082-.116.183-.246.305-.3a.99.99 0 0 1 .407-.081c.082 0 .157.006.222.017a.977.977 0 0 1 .132.032l-.159.505a.94.94 0 0 0-.108-.028zm-2.534 1.669a.943.943 0 0 1-.318.258.994.994 0 0 1-.454.096 1.197 1.197 0 0 1-1.132-.762 1.337 1.337 0 0 1-.095-.512c0-.186.031-.356.095-.513a1.197 1.197 0 0 1 1.132-.762c.176 0 .328.033.454.098a.958.958 0 0 1 .318.259v-.294h.536v2.423h-.536v-.291zm-.02-1.229a.7.7 0 0 0-.385-.408.742.742 0 0 0-.303-.06.742.742 0 0 0-.311.063.665.665 0 0 0-.232.166.735.735 0 0 0-.146.247.877.877 0 0 0-.051.301c0 .106.017.206.051.3a.694.694 0 0 0 .378.414.757.757 0 0 0 .311.062.703.703 0 0 0 .688-.468.878.878 0 0 0 .054-.308.883.883 0 0 0-.054-.309zm-3.698.869c.069.068.15.121.244.159a.827.827 0 0 0 .305.057c.12 0 .232-.02.336-.057a.82.82 0 0 0 .26-.153l.258.423a1.38 1.38 0 0 1-.854.285 1.38 1.38 0 0 1-.527-.098 1.256 1.256 0 0 1-.693-.671 1.258 1.258 0 0 1-.1-.505 1.259 1.259 0 0 1 .376-.91c.117-.113.256-.202.417-.267a1.4 1.4 0 0 1 .527-.098c.19 0 .365.033.527.098.121.048.23.111.327.187l-.258.423a.82.82 0 0 0-.26-.153.972.972 0 0 0-.336-.057.807.807 0 0 0-.305.057.736.736 0 0 0-.244.159.755.755 0 0 0-.161.246.822.822 0 0 0-.059.315c0 .114.02.219.059.314a.745.745 0 0 0 .161.246zm-1.194-1.309a1.095 1.095 0 0 0-.211-.023.627.627 0 0 0-.236.044.488.488 0 0 0-.184.126.59.59 0 0 0-.12.205.805.805 0 0 0-.044.275v1.333h-.492v-2.423h.487v.318c.082-.116.183-.246.305-.3a.99.99 0 0 1 .407-.081c.082 0 .156.006.222.017a.977.977 0 0 1 .132.032l-.159.505a.978.978 0 0 0-.107-.028zm-1.891.943h-1.815c.017.11.049.203.095.281a.687.687 0 0 0 .166.191c.065.05.138.086.219.11a.895.895 0 0 0 .251.035 1.172 1.172 0 0 0 .709-.255l.267.377c-.15.126-.31.214-.478.265a1.825 1.825 0 0 1-.532.076c-.185 0-.354-.03-.507-.091a1.153 1.153 0 0 1-.657-.66 1.432 1.432 0 0 1-.092-.523c0-.189.03-.362.09-.519.06-.157.144-.291.251-.403a1.11 1.11 0 0 1 .386-.26c.149-.062.315-.093.496-.093.171 0 .327.031.47.093.143.061.265.148.367.26.101.112.181.246.238.402a1.495 1.495 0 0 1 .083.618 2.395 2.395 0 0 1-.007.096zm-.744-.842a.575.575 0 0 0-.417-.157.704.704 0 0 0-.256.044.548.548 0 0 0-.192.122.665.665 0 0 0-.132.19.867.867 0 0 0-.071.241h1.273a.753.753 0 0 0-.205-.44zm-2.903 1.179a.406.406 0 0 0 .083.14.313.313 0 0 0 .124.079.44.44 0 0 0 .152.026.728.728 0 0 0 .255-.048 1.43 1.43 0 0 0 .164-.073l.183.442a1.788 1.788 0 0 1-.229.106 1.176 1.176 0 0 1-.419.071c-.279 0-.495-.076-.65-.229-.155-.152-.232-.39-.232-.712V20.93h-.49v-.481h.49v-.733h.538v.733h.86v.481h-.86v1.054c0 .081.011.15.031.208zm-2.851-.878a.515.515 0 0 0 .128.045c.049.01.102.02.158.028l.254.038c.268.039.477.116.628.232.15.115.225.276.225.484a.689.689 0 0 1-.293.57c-.095.07-.212.125-.351.163a1.76 1.76 0 0 1-.473.058c-.063 0-.137-.003-.22-.011a1.882 1.882 0 0 1-.554-.14 1.355 1.355 0 0 1-.28-.16l.249-.397c.045.034.093.066.145.095.052.03.111.056.177.078a1.374 1.374 0 0 0 .488.075c.185 0 .324-.026.418-.079.094-.054.141-.126.141-.217 0-.069-.034-.125-.103-.17a.817.817 0 0 0-.323-.098l-.256-.033c-.274-.037-.481-.115-.622-.236a.592.592 0 0 1-.211-.474.679.679 0 0 1 .273-.567.968.968 0 0 1 .319-.155c.125-.036.266-.054.423-.054.193 0 .375.022.546.067.171.044.32.107.448.188l-.23.413a1.365 1.365 0 0 0-.321-.137 1.81 1.81 0 0 0-.211-.051 1.312 1.312 0 0 0-.227-.02.623.623 0 0 0-.342.079c-.081.054-.122.123-.122.209 0 .042.011.078.032.107.021.028.05.052.087.07zm-1.83 1.267a.943.943 0 0 1-.318.258.994.994 0 0 1-.454.096 1.197 1.197 0 0 1-1.133-.762 1.356 1.356 0 0 1-.094-.512c0-.186.031-.356.094-.513a1.197 1.197 0 0 1 1.133-.762c.176 0 .328.033.454.098a.958.958 0 0 1 .318.259v-.294h.536v2.423h-.536v-.291zm-.021-1.229a.7.7 0 0 0-.384-.408.745.745 0 0 0-.303-.06.735.735 0 0 0-.543.229.735.735 0 0 0-.146.247.854.854 0 0 0-.052.301c0 .106.017.206.052.3a.694.694 0 0 0 .378.414.75.75 0 0 0 .311.062.703.703 0 0 0 .687-.468.856.856 0 0 0 .054-.308.861.861 0 0 0-.054-.309zm-2.977.172c0-.204-.049-.361-.145-.47a.515.515 0 0 0-.408-.165.666.666 0 0 0-.238.042.549.549 0 0 0-.328.324.712.712 0 0 0-.05.274v1.343h-.521v-1.348c0-.204-.048-.361-.145-.47a.514.514 0 0 0-.408-.165.674.674 0 0 0-.238.042.567.567 0 0 0-.328.324.732.732 0 0 0-.049.274v1.343h-.521v-2.423h.516v.296a.754.754 0 0 1 .345-.285.883.883 0 0 1 .195-.057c.065-.011.128-.017.189-.017.182 0 .344.039.485.115a.886.886 0 0 1 .337.317.82.82 0 0 1 .4-.346 1.04 1.04 0 0 1 .236-.067c.08-.012.157-.019.232-.019.14 0 .27.024.388.071a.893.893 0 0 1 .506.503c.047.118.071.248.071.39v1.522h-.521v-1.348z"/>
    <path fill="#F69F00" fill-rule="evenodd" d="M29.922 14.065v-.237l-.078.204h-.085l-.078-.203v.236H29.6v-.341h.116l.086.218.085-.218h.116v.341h-.081zM20.999 18a8.957 8.957 0 0 1-6-2.306C16.837 14.047 17 11.662 17 9s-.163-5.047-2.001-6.695a8.957 8.957 0 0 1 6-2.305 9 9 0 1 1 0 18zm8.534-4.202h-.11v.267h-.081v-.267h-.11v-.074h.301v.074z"/>
    <path fill="#E30D17" fill-rule="evenodd" d="M13 9c0 2.662.162 5.047 1.999 6.694a8.952 8.952 0 0 1-6 2.306A9 9 0 0 1 0 9a9 9 0 0 1 8.999-9 8.95 8.95 0 0 1 6 2.305C13.162 3.953 13 6.338 13 9z"/>
    <path fill="#EB610A" fill-rule="evenodd" d="M12 9c0-2.787 1.162-5.283 2.999-7.008C16.837 3.717 18 6.213 18 9c0 2.786-1.163 5.283-3.001 7.007C13.162 14.283 12 11.786 12 9z"/>
</svg>
