<svg xmlns="http://www.w3.org/2000/svg" width="24" height="18">
    <path fill="#C5CDD1" fill-rule="evenodd" d="M23.591 9.86c-1.856 1.665-6.355 5.135-11.61 5.135-.969 0-1.912-.12-2.818-.322l1.742-1.743c.356.037.713.063 1.076.063 4.024 0 7.657-2.452 9.551-4.003-.964-.79-2.379-1.811-4.065-2.625l1.49-1.49c2.061 1.086 3.691 2.398 4.634 3.244a1.158 1.158 0 0 1 0 1.741zM11.98 12.991c-.346 0-.676-.058-.996-.14l4.856-4.858c.083.32.14.65.14.996a4 4 0 0 1-4 4.002zm-7.262 4.713c-.389.39-1.026.39-1.415 0l-.034-.034a1.004 1.004 0 0 1 0-1.415L19.242.274a1.005 1.005 0 0 1 1.416 0l.034.034c.389.39.389 1.027 0 1.416L4.718 17.704zm7.263-12.718h-.001c.347.001.677.058.997.141L8.12 9.987a3.968 3.968 0 0 1-.141-.998c0-2.21 1.79-4.001 3.999-4.002-4.023.001-7.654 2.452-9.548 4.003.964.789 2.378 1.809 4.063 2.623l-1.489 1.491C2.942 12.018 1.314 10.706.371 9.86a1.156 1.156 0 0 1 0-1.741c1.856-1.664 6.354-5.134 11.61-5.134.968 0 1.91.119 2.816.322L13.054 5.05a10.034 10.034 0 0 0-1.073-.064z"/>
</svg>
