<svg xmlns="http://www.w3.org/2000/svg" width="61.5" height="61.5">
    <path fill="none" stroke="#005BAA" d="M30.499.499c16.569 0 30.001 13.432 30.001 30 0 16.569-13.432 30-30.001 30C13.931 60.499.5 47.068.5 30.499c0-16.568 13.431-30 29.999-30z" opacity=".502"/>
    <path fill="#005BAA" fill-rule="evenodd" d="M38.506 37.494c-1.104 0-2-.891-2-1.992 0-1.1.896-1.992 2-1.992 1.105 0 2.001.892 2.001 1.992a1.996 1.996 0 0 1-2.001 1.992zm-5.999-5.991c-1.105 0-2-.899-2-2.008 0-1.108.895-2.007 2-2.007 1.104 0 2 .899 2 2.007a2.004 2.004 0 0 1-2 2.008zm-7.861 9.987H13.521c-.594 0-1.06-.499-1.011-1.081l.845-11.986a1.009 1.009 0 0 1 1.011-.916h11.126c.593 0 1.06.499 1.01 1.081l-.845 11.987a1.007 1.007 0 0 1-1.011.915z" opacity=".2"/>
    <path fill="#005BAA" fill-rule="evenodd" d="M45.506 42.509h-20a.99.99 0 0 1-.985-1.019h-11c-.594 0-1.06-.499-1.011-1.081l.845-11.986a1.009 1.009 0 0 1 1.011-.916h11.126c.099 0 .187.032.278.058l.098-1.077H15.006a.497.497 0 0 1-.5-.494c0-.273.224-.494.5-.494h10.952l.373-4.104a1 1 0 0 1 .995-.9h3.396c.06-.34.134-.668.217-.988h-2.966c-.258 0-.467-.228-.467-.509 0-.282.209-.51.467-.51h3.284c.874-2.401 2.432-3.975 4.25-3.975 1.819 0 3.377 1.574 4.251 3.975h3.282c.258 0 .467.228.467.51 0 .281-.209.509-.467.509h-2.965c.084.32.158.648.218.988h3.394a1 1 0 0 1 .995.9l1.819 20.012a1 1 0 0 1-.995 1.101zM25.492 28.506H14.366l-.86 11.987 11.089-.001.243-2.678.668-9.31-.014.002zm10.015-12.993c-1.235 0-2.355 1.183-3.073 2.976h6.147c-.718-1.793-1.838-2.976-3.074-2.976zm3.423 3.995h-6.845c-.089.317-.163.648-.229.988h7.303c-.066-.34-.14-.671-.229-.988zm4.757 1.989h-3.26c.05.488.08.989.08 1.505 0 .276-.248.5-.555.5-.307 0-.556-.224-.556-.5 0-.513-.029-1.017-.083-1.505h-7.611c-.054.488-.083.992-.083 1.505 0 .276-.249.5-.556.5-.307 0-.556-.224-.556-.5 0-.516.031-1.017.08-1.505h-3.261l-1.441 15.851-.228 3.227a.975.975 0 0 1-.097.343l-.054.591h20l-1.819-20.012zm-4.163 6.163a.556.556 0 0 1 .786.784l-8.889 8.877a.557.557 0 0 1-.786-.785l8.889-8.876zm-1.018 5.85c1.105 0 2.001.892 2.001 1.992a1.996 1.996 0 0 1-2.001 1.992c-1.104 0-2-.891-2-1.992 0-1.1.896-1.992 2-1.992zm0 2.988a1 1 0 0 0 1.001-.996 1 1 0 0 0-2 0c0 .55.448.996.999.996zm-5.999-4.995c-1.105 0-2-.899-2-2.008 0-1.108.895-2.007 2-2.007 1.104 0 2 .899 2 2.007a2.004 2.004 0 0 1-2 2.008zm0-3.011a1.003 1.003 0 1 0 0 2.007c.551 0 .999-.45.999-1.004 0-.553-.448-1.003-.999-1.003zm-9.452 5.967a6.228 6.228 0 0 1-.593.029 5.41 5.41 0 0 1-2.393-.537c-2.435-1.201-2.558-3.811-2.562-3.921a.498.498 0 0 1 .481-.515l.019-.001a.5.5 0 0 1 .5.48c.003.086.099 2.125 2.007 3.066.904.447 1.828.469 2.444.409a.503.503 0 0 1 .547.446.5.5 0 0 1-.45.544z"/>
</svg>
