<?xml version="1.0" encoding="UTF-8" standalone="no"?>
<svg
   xmlns:dc="http://purl.org/dc/elements/1.1/"
   xmlns:cc="http://creativecommons.org/ns#"
   xmlns:rdf="http://www.w3.org/1999/02/22-rdf-syntax-ns#"
   xmlns:svg="http://www.w3.org/2000/svg"
   xmlns="http://www.w3.org/2000/svg"
   xmlns:sodipodi="http://sodipodi.sourceforge.net/DTD/sodipodi-0.dtd"
   xmlns:inkscape="http://www.inkscape.org/namespaces/inkscape"
   width="16"
   height="16"
   version="1.1"
   id="svg6"
   sodipodi:docname="star-half-off.svg"
   inkscape:version="0.92.1 r15371">
  <metadata
     id="metadata12">
    <rdf:RDF>
      <cc:Work
         rdf:about="">
        <dc:format>image/svg+xml</dc:format>
        <dc:type
           rdf:resource="http://purl.org/dc/dcmitype/StillImage" />
      </cc:Work>
    </rdf:RDF>
  </metadata>
  <defs
     id="defs10" />
  <sodipodi:namedview
     pagecolor="#ffffff"
     bordercolor="#666666"
     borderopacity="1"
     objecttolerance="10"
     gridtolerance="10"
     guidetolerance="10"
     inkscape:pageopacity="0"
     inkscape:pageshadow="2"
     inkscape:window-width="779"
     inkscape:window-height="480"
     id="namedview8"
     showgrid="false"
     inkscape:zoom="14.75"
     inkscape:cx="8"
     inkscape:cy="8"
     inkscape:window-x="667"
     inkscape:window-y="96"
     inkscape:window-maximized="0"
     inkscape:current-layer="svg6" />
  <path
     fill="#EFF2F4"
     fill-rule="evenodd"
     d="M8 13.18l.03-.018 4.957 2.854-1.085-5.852 4.101-4.098-5.604-.719L8 .013V13.18z"
     id="path2" />
  <path
     fill="#C6CACE"
     fill-rule="evenodd"
     d="M11.867 10.175L12.904 16 8 13.136v-1.158l.476.278 3.064 1.79-.658-3.696-.093-.521.379-.37 2.669-2.606-3.569-.488-.553-.075-.226-.511-1.474-3.331L8 2.481V.055L8.025 0l2.378 5.374L16 6.139l-4.133 4.036z"
     id="path4" />
  <path
     inkscape:connector-curvature="0"
     style="fill:#ff9000;fill-rule:evenodd"
     d="M 8,13.18 7.97,13.162 3.013,15.999 4.098,10.182 -0.003,6.108 5.601,5.393 8,0.091 Z"
     id="path74" />
</svg>
