<svg xmlns="http://www.w3.org/2000/svg" width="30" height="26">
    <path fill="#C5CDD1" fill-rule="evenodd" d="M22 8.262V6a2 2 0 0 0-2-2H4a2 2 0 0 0-2 2v12a2 2 0 0 0 2 2h9.079a8 8 0 0 0 1.642 2H4a4 4 0 0 1-4-4V6c0-2.21 1.79-4 4-4h16a3.999 3.999 0 0 1 3.999 4v3.079A7.929 7.929 0 0 0 22 8.262z"/>
    <path fill="#C5CDD1" fill-rule="evenodd" d="M20 8a8 8 0 0 0-8 8c0 1.459.396 2.822 1.079 4H2V3h19.999v5.262A7.99 7.99 0 0 0 20 8z" opacity=".102"/>
    <path fill="#C5CDD1" fill-rule="evenodd" d="M16.999 8.587V7h2v1.069a7.962 7.962 0 0 0-2 .518zm0-8.587h2v4h-2V0zm-4 7h2v2h-2V7zm-4 8h2v2h-2v-2zm0-4h2v2h-2v-2zm0-4h2v2h-2V7zm-4 8h2v2h-2v-2zm0-4h2v2h-2v-2zm0-4h2v2h-2V7zm0-7h2v4h-2V0zm8 12.131V11h.761a8.047 8.047 0 0 0-.761 1.131z"/>
    <path fill="none" stroke="#C5CDD1" stroke-width="2" d="M20 8a8 8 0 1 1-8 8 8 8 0 0 1 8-8z"/>
    <path fill="#C5CDD1" fill-rule="evenodd" d="M20 8a8 8 0 1 1-8 8 8 8 0 0 1 8-8z" opacity=".102"/>
    <path fill="#C5CDD1" fill-rule="evenodd" d="M23 17H18.999v-5h2v3H23v2z"/>
</svg>
