<svg xmlns="http://www.w3.org/2000/svg" width="54" height="16">
    <path fill="#005CA9" fill-rule="evenodd" d="M48.884 15.992l-.528-2.375h-5.721l-.939 2.375h-4.691l6.712-14.8S44.124 0 45.795 0h3.618l3.604 15.992h-4.133zM46.296 4.351l-2.364 5.984h3.695l-1.331-5.984zm-14.499.223c0 1.747 5.604 2.121 5.604 6.141 0 3.871-4.135 5.294-6.875 5.294-2.741 0-4.534-.874-4.534-.874l.598-3.471c1.644 1.323 6.626 1.698 6.626-.4 0-2.097-5.555-2.146-5.555-6.141 0-4.245 4.733-5.118 6.726-5.118 1.844 0 3.612.674 3.612.674l-.573 3.32c-1.718-.949-5.629-1.173-5.629.575zM18.994 15.992L21.688 0h4.309l-2.693 15.992h-4.31zm-10.582 0L4.594 2.099s-.403-.425 1.926 1.274c3.107 2.268 4.048 5.258 4.048 5.258l.495 2.368L15.253 0h4.73l-6.992 15.992H8.412z"/>
    <path fill="#F7A823" fill-rule="evenodd" d="M10.568 8.631L9.089 1.44S8.911 0 7.004 0H.078l-.081.27S3.326.925 6.52 3.373c3.052 2.341 4.048 5.258 4.048 5.258z"/>
</svg>
