<svg xmlns="http://www.w3.org/2000/svg" width="24" height="12">
    <path fill="#005BAA" fill-rule="evenodd" d="M23.586 6.87C21.731 8.533 17.231 12 11.976 12 6.72 12 2.222 8.533.366 6.87a1.157 1.157 0 0 1 0-1.74C2.222 3.467 6.72 0 11.976 0c5.255 0 9.755 3.467 11.61 5.13a1.155 1.155 0 0 1 0 1.74zM11.976 2h-.001a4 4 0 1 1 0 7.998A4 4 0 0 1 11.974 2c-4.023.001-7.655 2.45-9.549 4 1.895 1.55 5.527 4 9.551 4s7.656-2.45 9.551-4C19.632 4.45 16 2 11.976 2zm-.001 2c-1.103 0-2 .897-2 1.999s.897 1.999 2 1.999 2-.897 2-1.999a2.002 2.002 0 0 0-2-1.999z"/>
</svg>
