<svg xmlns="http://www.w3.org/2000/svg" width="40" height="40">
    <path fill="#4C75A3" fill-rule="evenodd" d="M39.995 19.994c0 11.045-8.954 19.999-19.999 19.999-11.045 0-19.999-8.954-19.999-19.999C-.003 8.949 8.951-.005 19.996-.005c11.045 0 19.999 8.954 19.999 19.999z"/>
    <path fill="#FFF" fill-rule="evenodd" d="M19.748 27.954h1.436s.433-.049.654-.293c.203-.225.197-.645.197-.645s-.028-1.97.866-2.259c.881-.287 2.011 1.902 3.211 2.744.906.638 1.596.498 1.596.498l3.204-.045s1.678-.106.882-1.455c-.065-.111-.463-.998-2.384-2.822-2.009-1.907-1.74-1.599.681-4.901 1.475-2.01 2.064-3.237 1.881-3.763-.176-.502-1.26-.368-1.26-.368l-3.611.023s-.267-.038-.466.083c-.194.119-.318.397-.318.397s-.571 1.556-1.333 2.878c-1.607 2.793-2.25 2.94-2.513 2.767-.611-.405-.459-1.624-.459-2.49 0-2.706.402-3.834-.781-4.125-.391-.098-.681-.162-1.683-.171-1.289-.015-2.379.003-2.996.312-.412.205-.728.665-.535.69.239.033.779.151 1.066.549.369.515.357 1.67.357 1.67s.213 3.186-.497 3.581c-.487.272-1.154-.283-2.587-2.816a23.757 23.757 0 0 1-1.288-2.731s-.107-.267-.297-.41a1.473 1.473 0 0 0-.556-.23l-3.429.023s-.515.014-.705.244c-.167.203-.012.625-.012.625s2.684 6.427 5.725 9.665c2.787 2.97 5.954 2.775 5.954 2.775z"/>
</svg>
