<svg xmlns="http://www.w3.org/2000/svg" width="40" height="40">
    <path fill="#F00" fill-rule="evenodd" d="M19.999 0c-11.046 0-20 8.955-20 20s8.954 20 20 20S40 31.045 40 20 31.045 0 19.999 0z"/>
    <path fill="#FFF" fill-rule="evenodd" d="M31.495 14.654a3.021 3.021 0 0 0-2.121-2.147c-1.871-.508-9.375-.508-9.375-.508s-7.503 0-9.375.508a3.023 3.023 0 0 0-2.121 2.147c-.501 1.894-.501 5.846-.501 5.846s0 3.951.501 5.845a3.023 3.023 0 0 0 2.121 2.147c1.872.508 9.375.508 9.375.508s7.504 0 9.375-.508a3.021 3.021 0 0 0 2.121-2.147c.502-1.894.502-5.845.502-5.845s0-3.952-.502-5.846zM17.6 24.143v-7.286l6.234 3.643-6.234 3.643z"/>
</svg>
